<mxfile host="app.diagrams.net" modified="2023-08-24T07:51:09.068Z" agent="Mozilla/5.0 (Macintosh; Intel Mac OS X 10_15_7) AppleWebKit/537.36 (KHTML, like Gecko) Chrome/115.0.0.0 Safari/537.36 Edg/115.0.1901.203" etag="Iznsm11HGpE2-WloY5f5" version="21.6.8" type="github">
  <diagram id="C5RBs43oDa-KdzZeNtuy" name="Page-1">
    <mxGraphModel dx="2715" dy="889" grid="1" gridSize="10" guides="1" tooltips="1" connect="1" arrows="1" fold="1" page="1" pageScale="1" pageWidth="827" pageHeight="1169" math="0" shadow="0">
      <root>
        <mxCell id="WIyWlLk6GJQsqaUBKTNV-0" />
        <mxCell id="WIyWlLk6GJQsqaUBKTNV-1" parent="WIyWlLk6GJQsqaUBKTNV-0" />
        <mxCell id="kRNO9Mzyhtv_aaAjTweV-62" value="" style="rounded=0;whiteSpace=wrap;html=1;labelBackgroundColor=none;fillColor=#B2C9AB;strokeColor=#788AA3;fontColor=#46495D;" vertex="1" parent="WIyWlLk6GJQsqaUBKTNV-1">
          <mxGeometry x="100" y="250" width="570" height="314" as="geometry" />
        </mxCell>
        <mxCell id="kRNO9Mzyhtv_aaAjTweV-61" value="" style="rounded=0;whiteSpace=wrap;html=1;labelBackgroundColor=none;fillColor=#B2C9AB;strokeColor=#788AA3;fontColor=#46495D;" vertex="1" parent="WIyWlLk6GJQsqaUBKTNV-1">
          <mxGeometry x="-530" y="246" width="550" height="320" as="geometry" />
        </mxCell>
        <mxCell id="kRNO9Mzyhtv_aaAjTweV-65" style="edgeStyle=orthogonalEdgeStyle;rounded=0;orthogonalLoop=1;jettySize=auto;html=1;labelBackgroundColor=none;strokeColor=#788AA3;fontColor=default;" edge="1" parent="WIyWlLk6GJQsqaUBKTNV-1" source="kRNO9Mzyhtv_aaAjTweV-0" target="kRNO9Mzyhtv_aaAjTweV-61">
          <mxGeometry relative="1" as="geometry" />
        </mxCell>
        <mxCell id="kRNO9Mzyhtv_aaAjTweV-66" style="edgeStyle=orthogonalEdgeStyle;rounded=0;orthogonalLoop=1;jettySize=auto;html=1;entryX=0.4;entryY=0.001;entryDx=0;entryDy=0;entryPerimeter=0;labelBackgroundColor=none;strokeColor=#788AA3;fontColor=default;" edge="1" parent="WIyWlLk6GJQsqaUBKTNV-1" source="kRNO9Mzyhtv_aaAjTweV-0" target="kRNO9Mzyhtv_aaAjTweV-62">
          <mxGeometry relative="1" as="geometry" />
        </mxCell>
        <mxCell id="kRNO9Mzyhtv_aaAjTweV-67" style="edgeStyle=orthogonalEdgeStyle;rounded=0;orthogonalLoop=1;jettySize=auto;html=1;entryX=0.5;entryY=0;entryDx=0;entryDy=0;labelBackgroundColor=none;strokeColor=#788AA3;fontColor=default;" edge="1" parent="WIyWlLk6GJQsqaUBKTNV-1" source="kRNO9Mzyhtv_aaAjTweV-0" target="kRNO9Mzyhtv_aaAjTweV-59">
          <mxGeometry relative="1" as="geometry" />
        </mxCell>
        <mxCell id="kRNO9Mzyhtv_aaAjTweV-0" value="消费mq数据" style="rounded=0;whiteSpace=wrap;html=1;labelBackgroundColor=none;fillColor=#B2C9AB;strokeColor=#788AA3;fontColor=#46495D;" vertex="1" parent="WIyWlLk6GJQsqaUBKTNV-1">
          <mxGeometry x="280" y="110" width="96" height="40" as="geometry" />
        </mxCell>
        <mxCell id="kRNO9Mzyhtv_aaAjTweV-40" style="edgeStyle=orthogonalEdgeStyle;rounded=0;orthogonalLoop=1;jettySize=auto;html=1;entryX=-0.032;entryY=0.088;entryDx=0;entryDy=0;entryPerimeter=0;labelBackgroundColor=none;strokeColor=#788AA3;fontColor=default;" edge="1" parent="WIyWlLk6GJQsqaUBKTNV-1" source="kRNO9Mzyhtv_aaAjTweV-20" target="kRNO9Mzyhtv_aaAjTweV-32">
          <mxGeometry relative="1" as="geometry" />
        </mxCell>
        <mxCell id="kRNO9Mzyhtv_aaAjTweV-20" value="5分钟定时任务删除过期的黑名单缓存数据" style="rounded=0;whiteSpace=wrap;html=1;labelBackgroundColor=none;fillColor=#B2C9AB;strokeColor=#788AA3;fontColor=#46495D;" vertex="1" parent="WIyWlLk6GJQsqaUBKTNV-1">
          <mxGeometry x="-500" y="328.5" width="100" height="40" as="geometry" />
        </mxCell>
        <mxCell id="kRNO9Mzyhtv_aaAjTweV-29" value="" style="edgeStyle=orthogonalEdgeStyle;rounded=0;orthogonalLoop=1;jettySize=auto;html=1;labelBackgroundColor=none;strokeColor=#788AA3;fontColor=default;" edge="1" parent="WIyWlLk6GJQsqaUBKTNV-1" source="kRNO9Mzyhtv_aaAjTweV-21" target="kRNO9Mzyhtv_aaAjTweV-28">
          <mxGeometry relative="1" as="geometry" />
        </mxCell>
        <mxCell id="kRNO9Mzyhtv_aaAjTweV-48" value="否" style="edgeLabel;html=1;align=center;verticalAlign=middle;resizable=0;points=[];labelBackgroundColor=none;fontColor=#46495D;" vertex="1" connectable="0" parent="kRNO9Mzyhtv_aaAjTweV-29">
          <mxGeometry x="-0.0487" relative="1" as="geometry">
            <mxPoint as="offset" />
          </mxGeometry>
        </mxCell>
        <mxCell id="kRNO9Mzyhtv_aaAjTweV-36" style="edgeStyle=orthogonalEdgeStyle;rounded=0;orthogonalLoop=1;jettySize=auto;html=1;entryX=1;entryY=0.5;entryDx=0;entryDy=0;labelBackgroundColor=none;strokeColor=#788AA3;fontColor=default;" edge="1" parent="WIyWlLk6GJQsqaUBKTNV-1" source="kRNO9Mzyhtv_aaAjTweV-21" target="kRNO9Mzyhtv_aaAjTweV-32">
          <mxGeometry relative="1" as="geometry" />
        </mxCell>
        <mxCell id="kRNO9Mzyhtv_aaAjTweV-50" value="查询" style="edgeLabel;html=1;align=center;verticalAlign=middle;resizable=0;points=[];labelBackgroundColor=none;fontColor=#46495D;" vertex="1" connectable="0" parent="kRNO9Mzyhtv_aaAjTweV-36">
          <mxGeometry x="0.0988" y="1" relative="1" as="geometry">
            <mxPoint x="5" as="offset" />
          </mxGeometry>
        </mxCell>
        <mxCell id="kRNO9Mzyhtv_aaAjTweV-21" value="黑名单缓存中是否有数据" style="rhombus;whiteSpace=wrap;html=1;labelBackgroundColor=none;fillColor=#B2C9AB;strokeColor=#788AA3;fontColor=#46495D;" vertex="1" parent="WIyWlLk6GJQsqaUBKTNV-1">
          <mxGeometry x="-250" y="377.5" width="150" height="70" as="geometry" />
        </mxCell>
        <mxCell id="kRNO9Mzyhtv_aaAjTweV-27" value="" style="edgeStyle=orthogonalEdgeStyle;rounded=0;orthogonalLoop=1;jettySize=auto;html=1;labelBackgroundColor=none;strokeColor=#788AA3;fontColor=default;" edge="1" parent="WIyWlLk6GJQsqaUBKTNV-1" source="kRNO9Mzyhtv_aaAjTweV-21" target="kRNO9Mzyhtv_aaAjTweV-26">
          <mxGeometry relative="1" as="geometry">
            <mxPoint x="-100" y="412.5" as="sourcePoint" />
            <mxPoint x="-5" y="412.5" as="targetPoint" />
          </mxGeometry>
        </mxCell>
        <mxCell id="kRNO9Mzyhtv_aaAjTweV-49" value="是" style="edgeLabel;html=1;align=center;verticalAlign=middle;resizable=0;points=[];labelBackgroundColor=none;fontColor=#46495D;" vertex="1" connectable="0" parent="kRNO9Mzyhtv_aaAjTweV-27">
          <mxGeometry x="0.3873" y="2" relative="1" as="geometry">
            <mxPoint as="offset" />
          </mxGeometry>
        </mxCell>
        <mxCell id="kRNO9Mzyhtv_aaAjTweV-26" value="返回是黑名单" style="whiteSpace=wrap;html=1;labelBackgroundColor=none;fillColor=#B2C9AB;strokeColor=#788AA3;fontColor=#46495D;" vertex="1" parent="WIyWlLk6GJQsqaUBKTNV-1">
          <mxGeometry x="-73" y="402.5" width="80" height="20" as="geometry" />
        </mxCell>
        <mxCell id="kRNO9Mzyhtv_aaAjTweV-28" value="返回不是黑名单" style="whiteSpace=wrap;html=1;labelBackgroundColor=none;fillColor=#B2C9AB;strokeColor=#788AA3;fontColor=#46495D;" vertex="1" parent="WIyWlLk6GJQsqaUBKTNV-1">
          <mxGeometry x="-228" y="484.5" width="105" height="30" as="geometry" />
        </mxCell>
        <mxCell id="kRNO9Mzyhtv_aaAjTweV-41" style="edgeStyle=orthogonalEdgeStyle;rounded=0;orthogonalLoop=1;jettySize=auto;html=1;entryX=-0.079;entryY=0.511;entryDx=0;entryDy=0;entryPerimeter=0;labelBackgroundColor=none;strokeColor=#788AA3;fontColor=default;" edge="1" parent="WIyWlLk6GJQsqaUBKTNV-1" source="kRNO9Mzyhtv_aaAjTweV-30" target="kRNO9Mzyhtv_aaAjTweV-32">
          <mxGeometry relative="1" as="geometry" />
        </mxCell>
        <mxCell id="kRNO9Mzyhtv_aaAjTweV-30" value="黑名单移除的及时从缓存池中移除" style="rounded=0;whiteSpace=wrap;html=1;labelBackgroundColor=none;fillColor=#B2C9AB;strokeColor=#788AA3;fontColor=#46495D;" vertex="1" parent="WIyWlLk6GJQsqaUBKTNV-1">
          <mxGeometry x="-500" y="393.5" width="100" height="40" as="geometry" />
        </mxCell>
        <mxCell id="kRNO9Mzyhtv_aaAjTweV-32" value="黑名单缓存池" style="rounded=0;whiteSpace=wrap;html=1;labelBackgroundColor=none;fillColor=#B2C9AB;strokeColor=#788AA3;fontColor=#46495D;" vertex="1" parent="WIyWlLk6GJQsqaUBKTNV-1">
          <mxGeometry x="-350" y="334.5" width="50" height="156" as="geometry" />
        </mxCell>
        <mxCell id="kRNO9Mzyhtv_aaAjTweV-47" style="edgeStyle=orthogonalEdgeStyle;rounded=0;orthogonalLoop=1;jettySize=auto;html=1;entryX=1.027;entryY=0.451;entryDx=0;entryDy=0;entryPerimeter=0;labelBackgroundColor=none;strokeColor=#788AA3;fontColor=default;" edge="1" parent="WIyWlLk6GJQsqaUBKTNV-1" source="kRNO9Mzyhtv_aaAjTweV-37" target="kRNO9Mzyhtv_aaAjTweV-43">
          <mxGeometry relative="1" as="geometry" />
        </mxCell>
        <mxCell id="kRNO9Mzyhtv_aaAjTweV-51" value="查询" style="edgeLabel;html=1;align=center;verticalAlign=middle;resizable=0;points=[];labelBackgroundColor=none;fontColor=#46495D;" vertex="1" connectable="0" parent="kRNO9Mzyhtv_aaAjTweV-47">
          <mxGeometry x="-0.2862" y="-2" relative="1" as="geometry">
            <mxPoint as="offset" />
          </mxGeometry>
        </mxCell>
        <mxCell id="kRNO9Mzyhtv_aaAjTweV-53" value="" style="edgeStyle=orthogonalEdgeStyle;rounded=0;orthogonalLoop=1;jettySize=auto;html=1;labelBackgroundColor=none;strokeColor=#788AA3;fontColor=default;" edge="1" parent="WIyWlLk6GJQsqaUBKTNV-1" source="kRNO9Mzyhtv_aaAjTweV-37" target="kRNO9Mzyhtv_aaAjTweV-52">
          <mxGeometry relative="1" as="geometry" />
        </mxCell>
        <mxCell id="kRNO9Mzyhtv_aaAjTweV-54" value="是" style="edgeLabel;html=1;align=center;verticalAlign=middle;resizable=0;points=[];labelBackgroundColor=none;fontColor=#46495D;" vertex="1" connectable="0" parent="kRNO9Mzyhtv_aaAjTweV-53">
          <mxGeometry x="0.0894" relative="1" as="geometry">
            <mxPoint as="offset" />
          </mxGeometry>
        </mxCell>
        <mxCell id="kRNO9Mzyhtv_aaAjTweV-56" value="" style="edgeStyle=orthogonalEdgeStyle;rounded=0;orthogonalLoop=1;jettySize=auto;html=1;labelBackgroundColor=none;strokeColor=#788AA3;fontColor=default;" edge="1" parent="WIyWlLk6GJQsqaUBKTNV-1" source="kRNO9Mzyhtv_aaAjTweV-37" target="kRNO9Mzyhtv_aaAjTweV-55">
          <mxGeometry relative="1" as="geometry" />
        </mxCell>
        <mxCell id="kRNO9Mzyhtv_aaAjTweV-37" value="呼频限制缓存池中是否有数据" style="rhombus;whiteSpace=wrap;html=1;labelBackgroundColor=none;fillColor=#B2C9AB;strokeColor=#788AA3;fontColor=#46495D;" vertex="1" parent="WIyWlLk6GJQsqaUBKTNV-1">
          <mxGeometry x="338" y="375" width="150" height="70" as="geometry" />
        </mxCell>
        <mxCell id="kRNO9Mzyhtv_aaAjTweV-45" style="edgeStyle=orthogonalEdgeStyle;rounded=0;orthogonalLoop=1;jettySize=auto;html=1;entryX=-0.032;entryY=0.13;entryDx=0;entryDy=0;entryPerimeter=0;labelBackgroundColor=none;strokeColor=#788AA3;fontColor=default;" edge="1" parent="WIyWlLk6GJQsqaUBKTNV-1" source="kRNO9Mzyhtv_aaAjTweV-38" target="kRNO9Mzyhtv_aaAjTweV-43">
          <mxGeometry relative="1" as="geometry" />
        </mxCell>
        <mxCell id="kRNO9Mzyhtv_aaAjTweV-38" value="定时任务更新呼频限制缓存中的数据" style="rounded=0;whiteSpace=wrap;html=1;labelBackgroundColor=none;fillColor=#B2C9AB;strokeColor=#788AA3;fontColor=#46495D;" vertex="1" parent="WIyWlLk6GJQsqaUBKTNV-1">
          <mxGeometry x="110" y="340" width="100" height="40" as="geometry" />
        </mxCell>
        <mxCell id="kRNO9Mzyhtv_aaAjTweV-42" style="edgeStyle=orthogonalEdgeStyle;rounded=0;orthogonalLoop=1;jettySize=auto;html=1;entryX=-0.008;entryY=0.91;entryDx=0;entryDy=0;entryPerimeter=0;labelBackgroundColor=none;strokeColor=#788AA3;fontColor=default;" edge="1" parent="WIyWlLk6GJQsqaUBKTNV-1" source="kRNO9Mzyhtv_aaAjTweV-39" target="kRNO9Mzyhtv_aaAjTweV-32">
          <mxGeometry relative="1" as="geometry" />
        </mxCell>
        <mxCell id="kRNO9Mzyhtv_aaAjTweV-39" value="新加的黑名单及时存入缓存池" style="rounded=0;whiteSpace=wrap;html=1;labelBackgroundColor=none;fillColor=#B2C9AB;strokeColor=#788AA3;fontColor=#46495D;" vertex="1" parent="WIyWlLk6GJQsqaUBKTNV-1">
          <mxGeometry x="-500" y="456.5" width="100" height="40" as="geometry" />
        </mxCell>
        <mxCell id="kRNO9Mzyhtv_aaAjTweV-43" value="呼频限制池" style="rounded=0;whiteSpace=wrap;html=1;labelBackgroundColor=none;fillColor=#B2C9AB;strokeColor=#788AA3;fontColor=#46495D;" vertex="1" parent="WIyWlLk6GJQsqaUBKTNV-1">
          <mxGeometry x="248" y="340" width="50" height="156" as="geometry" />
        </mxCell>
        <mxCell id="kRNO9Mzyhtv_aaAjTweV-46" style="edgeStyle=orthogonalEdgeStyle;rounded=0;orthogonalLoop=1;jettySize=auto;html=1;entryX=0;entryY=0.75;entryDx=0;entryDy=0;labelBackgroundColor=none;strokeColor=#788AA3;fontColor=default;" edge="1" parent="WIyWlLk6GJQsqaUBKTNV-1" source="kRNO9Mzyhtv_aaAjTweV-44" target="kRNO9Mzyhtv_aaAjTweV-43">
          <mxGeometry relative="1" as="geometry" />
        </mxCell>
        <mxCell id="kRNO9Mzyhtv_aaAjTweV-44" value="当天呼频限制缓存池没有数据，更新全量呼频限制缓存池" style="rounded=0;whiteSpace=wrap;html=1;labelBackgroundColor=none;fillColor=#B2C9AB;strokeColor=#788AA3;fontColor=#46495D;" vertex="1" parent="WIyWlLk6GJQsqaUBKTNV-1">
          <mxGeometry x="110" y="426" width="100" height="62" as="geometry" />
        </mxCell>
        <mxCell id="kRNO9Mzyhtv_aaAjTweV-52" value="返回呼频限制" style="whiteSpace=wrap;html=1;labelBackgroundColor=none;fillColor=#B2C9AB;strokeColor=#788AA3;fontColor=#46495D;" vertex="1" parent="WIyWlLk6GJQsqaUBKTNV-1">
          <mxGeometry x="538" y="398" width="120" height="24" as="geometry" />
        </mxCell>
        <mxCell id="kRNO9Mzyhtv_aaAjTweV-55" value="返回不限制" style="whiteSpace=wrap;html=1;labelBackgroundColor=none;fillColor=#B2C9AB;strokeColor=#788AA3;fontColor=#46495D;" vertex="1" parent="WIyWlLk6GJQsqaUBKTNV-1">
          <mxGeometry x="353" y="488" width="120" height="28" as="geometry" />
        </mxCell>
        <mxCell id="kRNO9Mzyhtv_aaAjTweV-58" style="edgeStyle=orthogonalEdgeStyle;rounded=0;orthogonalLoop=1;jettySize=auto;html=1;entryX=0.5;entryY=0;entryDx=0;entryDy=0;labelBackgroundColor=none;strokeColor=#788AA3;fontColor=default;" edge="1" parent="WIyWlLk6GJQsqaUBKTNV-1" source="kRNO9Mzyhtv_aaAjTweV-57" target="kRNO9Mzyhtv_aaAjTweV-32">
          <mxGeometry relative="1" as="geometry" />
        </mxCell>
        <mxCell id="kRNO9Mzyhtv_aaAjTweV-57" value="一次性脚本刷入黑名单缓存" style="rounded=0;whiteSpace=wrap;html=1;labelBackgroundColor=none;fillColor=#B2C9AB;strokeColor=#788AA3;fontColor=#46495D;" vertex="1" parent="WIyWlLk6GJQsqaUBKTNV-1">
          <mxGeometry x="-372.5" y="249.5" width="95" height="40" as="geometry" />
        </mxCell>
        <mxCell id="kRNO9Mzyhtv_aaAjTweV-59" value="批量查询是否存在未结案数据" style="rounded=0;whiteSpace=wrap;html=1;labelBackgroundColor=none;fillColor=#B2C9AB;strokeColor=#788AA3;fontColor=#46495D;" vertex="1" parent="WIyWlLk6GJQsqaUBKTNV-1">
          <mxGeometry x="750" y="386" width="100" height="40" as="geometry" />
        </mxCell>
        <mxCell id="kRNO9Mzyhtv_aaAjTweV-63" value="" style="endArrow=none;html=1;rounded=0;exitX=1;exitY=0.5;exitDx=0;exitDy=0;entryX=0;entryY=0.5;entryDx=0;entryDy=0;labelBackgroundColor=none;strokeColor=#788AA3;fontColor=default;" edge="1" parent="WIyWlLk6GJQsqaUBKTNV-1" source="kRNO9Mzyhtv_aaAjTweV-61" target="kRNO9Mzyhtv_aaAjTweV-62">
          <mxGeometry width="50" height="50" relative="1" as="geometry">
            <mxPoint x="40" y="402.5" as="sourcePoint" />
            <mxPoint x="90" y="352.5" as="targetPoint" />
          </mxGeometry>
        </mxCell>
        <mxCell id="kRNO9Mzyhtv_aaAjTweV-68" value="并行" style="edgeLabel;html=1;align=center;verticalAlign=middle;resizable=0;points=[];labelBackgroundColor=none;fontColor=#46495D;" vertex="1" connectable="0" parent="kRNO9Mzyhtv_aaAjTweV-63">
          <mxGeometry x="-0.0698" y="2" relative="1" as="geometry">
            <mxPoint as="offset" />
          </mxGeometry>
        </mxCell>
        <mxCell id="kRNO9Mzyhtv_aaAjTweV-64" value="" style="endArrow=none;html=1;rounded=0;exitX=1;exitY=0.5;exitDx=0;exitDy=0;entryX=0;entryY=0.5;entryDx=0;entryDy=0;labelBackgroundColor=none;strokeColor=#788AA3;fontColor=default;" edge="1" parent="WIyWlLk6GJQsqaUBKTNV-1">
          <mxGeometry width="50" height="50" relative="1" as="geometry">
            <mxPoint x="670" y="405.5" as="sourcePoint" />
            <mxPoint x="750" y="406.5" as="targetPoint" />
          </mxGeometry>
        </mxCell>
        <mxCell id="kRNO9Mzyhtv_aaAjTweV-69" value="并行" style="edgeLabel;html=1;align=center;verticalAlign=middle;resizable=0;points=[];labelBackgroundColor=none;fontColor=#46495D;" vertex="1" connectable="0" parent="kRNO9Mzyhtv_aaAjTweV-64">
          <mxGeometry x="0.0339" relative="1" as="geometry">
            <mxPoint as="offset" />
          </mxGeometry>
        </mxCell>
        <mxCell id="kRNO9Mzyhtv_aaAjTweV-75" value="" style="edgeStyle=orthogonalEdgeStyle;rounded=0;orthogonalLoop=1;jettySize=auto;html=1;labelBackgroundColor=none;strokeColor=#788AA3;fontColor=default;" edge="1" parent="WIyWlLk6GJQsqaUBKTNV-1" source="kRNO9Mzyhtv_aaAjTweV-73" target="kRNO9Mzyhtv_aaAjTweV-74">
          <mxGeometry relative="1" as="geometry" />
        </mxCell>
        <mxCell id="kRNO9Mzyhtv_aaAjTweV-76" value="是" style="edgeLabel;html=1;align=center;verticalAlign=middle;resizable=0;points=[];labelBackgroundColor=none;fontColor=#46495D;" vertex="1" connectable="0" parent="kRNO9Mzyhtv_aaAjTweV-75">
          <mxGeometry x="-0.0794" y="1" relative="1" as="geometry">
            <mxPoint as="offset" />
          </mxGeometry>
        </mxCell>
        <mxCell id="kRNO9Mzyhtv_aaAjTweV-79" style="edgeStyle=orthogonalEdgeStyle;rounded=0;orthogonalLoop=1;jettySize=auto;html=1;entryX=0.5;entryY=0;entryDx=0;entryDy=0;labelBackgroundColor=none;strokeColor=#788AA3;fontColor=default;" edge="1" parent="WIyWlLk6GJQsqaUBKTNV-1" source="kRNO9Mzyhtv_aaAjTweV-73" target="kRNO9Mzyhtv_aaAjTweV-78">
          <mxGeometry relative="1" as="geometry" />
        </mxCell>
        <mxCell id="kRNO9Mzyhtv_aaAjTweV-73" value="触发黑名单/呼频/策略类型是去重且存在未结案的数据" style="rhombus;whiteSpace=wrap;html=1;labelBackgroundColor=none;fillColor=#B2C9AB;strokeColor=#788AA3;fontColor=#46495D;" vertex="1" parent="WIyWlLk6GJQsqaUBKTNV-1">
          <mxGeometry x="143" y="660" width="370" height="80" as="geometry" />
        </mxCell>
        <mxCell id="kRNO9Mzyhtv_aaAjTweV-74" value="异步批量入排除名单表" style="whiteSpace=wrap;html=1;labelBackgroundColor=none;fillColor=#B2C9AB;strokeColor=#788AA3;fontColor=#46495D;" vertex="1" parent="WIyWlLk6GJQsqaUBKTNV-1">
          <mxGeometry x="620" y="670" width="120" height="60" as="geometry" />
        </mxCell>
        <mxCell id="kRNO9Mzyhtv_aaAjTweV-77" value="" style="shape=flexArrow;endArrow=classic;html=1;rounded=0;labelBackgroundColor=none;strokeColor=#788AA3;fontColor=default;" edge="1" parent="WIyWlLk6GJQsqaUBKTNV-1">
          <mxGeometry width="50" height="50" relative="1" as="geometry">
            <mxPoint x="328" y="582" as="sourcePoint" />
            <mxPoint x="328" y="647" as="targetPoint" />
          </mxGeometry>
        </mxCell>
        <mxCell id="kRNO9Mzyhtv_aaAjTweV-83" value="" style="edgeStyle=orthogonalEdgeStyle;rounded=0;orthogonalLoop=1;jettySize=auto;html=1;labelBackgroundColor=none;strokeColor=#788AA3;fontColor=default;" edge="1" parent="WIyWlLk6GJQsqaUBKTNV-1" source="kRNO9Mzyhtv_aaAjTweV-78" target="kRNO9Mzyhtv_aaAjTweV-82">
          <mxGeometry relative="1" as="geometry" />
        </mxCell>
        <mxCell id="kRNO9Mzyhtv_aaAjTweV-84" value="否" style="edgeLabel;html=1;align=center;verticalAlign=middle;resizable=0;points=[];labelBackgroundColor=none;fontColor=#46495D;" vertex="1" connectable="0" parent="kRNO9Mzyhtv_aaAjTweV-83">
          <mxGeometry x="-0.1208" relative="1" as="geometry">
            <mxPoint as="offset" />
          </mxGeometry>
        </mxCell>
        <mxCell id="kRNO9Mzyhtv_aaAjTweV-86" value="" style="edgeStyle=orthogonalEdgeStyle;rounded=0;orthogonalLoop=1;jettySize=auto;html=1;labelBackgroundColor=none;strokeColor=#788AA3;fontColor=default;" edge="1" parent="WIyWlLk6GJQsqaUBKTNV-1" source="kRNO9Mzyhtv_aaAjTweV-78" target="kRNO9Mzyhtv_aaAjTweV-85">
          <mxGeometry relative="1" as="geometry">
            <Array as="points">
              <mxPoint x="328" y="890" />
              <mxPoint x="328" y="890" />
            </Array>
          </mxGeometry>
        </mxCell>
        <mxCell id="kRNO9Mzyhtv_aaAjTweV-102" value="是" style="edgeLabel;html=1;align=center;verticalAlign=middle;resizable=0;points=[];fontColor=#46495D;" vertex="1" connectable="0" parent="kRNO9Mzyhtv_aaAjTweV-86">
          <mxGeometry x="-0.1448" y="-2" relative="1" as="geometry">
            <mxPoint as="offset" />
          </mxGeometry>
        </mxCell>
        <mxCell id="kRNO9Mzyhtv_aaAjTweV-78" value="是否存在未结案的数据" style="rhombus;whiteSpace=wrap;html=1;labelBackgroundColor=none;fillColor=#B2C9AB;strokeColor=#788AA3;fontColor=#46495D;" vertex="1" parent="WIyWlLk6GJQsqaUBKTNV-1">
          <mxGeometry x="288" y="800" width="80" height="80" as="geometry" />
        </mxCell>
        <mxCell id="kRNO9Mzyhtv_aaAjTweV-101" value="" style="edgeStyle=orthogonalEdgeStyle;rounded=0;orthogonalLoop=1;jettySize=auto;html=1;labelBackgroundColor=none;strokeColor=#788AA3;fontColor=default;" edge="1" parent="WIyWlLk6GJQsqaUBKTNV-1" source="kRNO9Mzyhtv_aaAjTweV-82" target="kRNO9Mzyhtv_aaAjTweV-100">
          <mxGeometry relative="1" as="geometry" />
        </mxCell>
        <mxCell id="kRNO9Mzyhtv_aaAjTweV-82" value="待入名单池" style="whiteSpace=wrap;html=1;labelBackgroundColor=none;fillColor=#B2C9AB;strokeColor=#788AA3;fontColor=#46495D;" vertex="1" parent="WIyWlLk6GJQsqaUBKTNV-1">
          <mxGeometry x="770" y="1105" width="120" height="30" as="geometry" />
        </mxCell>
        <mxCell id="kRNO9Mzyhtv_aaAjTweV-88" style="edgeStyle=orthogonalEdgeStyle;rounded=0;orthogonalLoop=1;jettySize=auto;html=1;entryX=0.5;entryY=0;entryDx=0;entryDy=0;labelBackgroundColor=none;strokeColor=#788AA3;fontColor=default;" edge="1" parent="WIyWlLk6GJQsqaUBKTNV-1" source="kRNO9Mzyhtv_aaAjTweV-85" target="kRNO9Mzyhtv_aaAjTweV-91">
          <mxGeometry relative="1" as="geometry">
            <mxPoint x="210" y="1040" as="targetPoint" />
          </mxGeometry>
        </mxCell>
        <mxCell id="kRNO9Mzyhtv_aaAjTweV-89" value="去重" style="edgeLabel;html=1;align=center;verticalAlign=middle;resizable=0;points=[];labelBackgroundColor=none;fontColor=#46495D;" vertex="1" connectable="0" parent="kRNO9Mzyhtv_aaAjTweV-88">
          <mxGeometry x="-0.2357" y="-2" relative="1" as="geometry">
            <mxPoint as="offset" />
          </mxGeometry>
        </mxCell>
        <mxCell id="kRNO9Mzyhtv_aaAjTweV-93" value="" style="edgeStyle=orthogonalEdgeStyle;rounded=0;orthogonalLoop=1;jettySize=auto;html=1;labelBackgroundColor=none;strokeColor=#788AA3;fontColor=default;" edge="1" parent="WIyWlLk6GJQsqaUBKTNV-1" source="kRNO9Mzyhtv_aaAjTweV-85" target="kRNO9Mzyhtv_aaAjTweV-92">
          <mxGeometry relative="1" as="geometry" />
        </mxCell>
        <mxCell id="kRNO9Mzyhtv_aaAjTweV-94" value="更新" style="edgeLabel;html=1;align=center;verticalAlign=middle;resizable=0;points=[];labelBackgroundColor=none;fontColor=#46495D;" vertex="1" connectable="0" parent="kRNO9Mzyhtv_aaAjTweV-93">
          <mxGeometry x="-0.5242" relative="1" as="geometry">
            <mxPoint y="11" as="offset" />
          </mxGeometry>
        </mxCell>
        <mxCell id="kRNO9Mzyhtv_aaAjTweV-96" style="edgeStyle=orthogonalEdgeStyle;rounded=0;orthogonalLoop=1;jettySize=auto;html=1;entryX=0.5;entryY=0;entryDx=0;entryDy=0;labelBackgroundColor=none;strokeColor=#788AA3;fontColor=default;" edge="1" parent="WIyWlLk6GJQsqaUBKTNV-1" source="kRNO9Mzyhtv_aaAjTweV-85" target="kRNO9Mzyhtv_aaAjTweV-98">
          <mxGeometry relative="1" as="geometry">
            <mxPoint x="488" y="960" as="targetPoint" />
          </mxGeometry>
        </mxCell>
        <mxCell id="kRNO9Mzyhtv_aaAjTweV-97" value="出库" style="edgeLabel;html=1;align=center;verticalAlign=middle;resizable=0;points=[];labelBackgroundColor=none;fontColor=#46495D;" vertex="1" connectable="0" parent="kRNO9Mzyhtv_aaAjTweV-96">
          <mxGeometry x="-0.1342" relative="1" as="geometry">
            <mxPoint as="offset" />
          </mxGeometry>
        </mxCell>
        <mxCell id="kRNO9Mzyhtv_aaAjTweV-85" value="撞库方式" style="rhombus;whiteSpace=wrap;html=1;labelBackgroundColor=none;fillColor=#B2C9AB;strokeColor=#788AA3;fontColor=#46495D;" vertex="1" parent="WIyWlLk6GJQsqaUBKTNV-1">
          <mxGeometry x="288" y="920" width="80" height="80" as="geometry" />
        </mxCell>
        <mxCell id="kRNO9Mzyhtv_aaAjTweV-91" value="如果策略配了有效期，异步更新名单表的名单有效期" style="rounded=0;whiteSpace=wrap;html=1;labelBackgroundColor=none;fillColor=#B2C9AB;strokeColor=#788AA3;fontColor=#46495D;" vertex="1" parent="WIyWlLk6GJQsqaUBKTNV-1">
          <mxGeometry x="88" y="1090" width="122" height="60" as="geometry" />
        </mxCell>
        <mxCell id="kRNO9Mzyhtv_aaAjTweV-92" value="异步更新挂短、券包、是否高优、结案事件、案件有效期" style="whiteSpace=wrap;html=1;labelBackgroundColor=none;fillColor=#B2C9AB;strokeColor=#788AA3;fontColor=#46495D;" vertex="1" parent="WIyWlLk6GJQsqaUBKTNV-1">
          <mxGeometry x="268" y="1090" width="120" height="60" as="geometry" />
        </mxCell>
        <mxCell id="kRNO9Mzyhtv_aaAjTweV-99" style="edgeStyle=orthogonalEdgeStyle;rounded=0;orthogonalLoop=1;jettySize=auto;html=1;entryX=0;entryY=0.5;entryDx=0;entryDy=0;labelBackgroundColor=none;strokeColor=#788AA3;fontColor=default;" edge="1" parent="WIyWlLk6GJQsqaUBKTNV-1" source="kRNO9Mzyhtv_aaAjTweV-98" target="kRNO9Mzyhtv_aaAjTweV-82">
          <mxGeometry relative="1" as="geometry">
            <Array as="points">
              <mxPoint x="700" y="1120" />
              <mxPoint x="700" y="1120" />
            </Array>
          </mxGeometry>
        </mxCell>
        <mxCell id="kRNO9Mzyhtv_aaAjTweV-98" value="老名单批量结案，新名单入待入名单池" style="whiteSpace=wrap;html=1;labelBackgroundColor=none;fillColor=#B2C9AB;strokeColor=#788AA3;fontColor=#46495D;" vertex="1" parent="WIyWlLk6GJQsqaUBKTNV-1">
          <mxGeometry x="480" y="1090" width="120" height="60" as="geometry" />
        </mxCell>
        <mxCell id="kRNO9Mzyhtv_aaAjTweV-104" value="" style="edgeStyle=orthogonalEdgeStyle;rounded=0;orthogonalLoop=1;jettySize=auto;html=1;strokeColor=#788AA3;fontColor=#46495D;fillColor=#B2C9AB;" edge="1" parent="WIyWlLk6GJQsqaUBKTNV-1" source="kRNO9Mzyhtv_aaAjTweV-100" target="kRNO9Mzyhtv_aaAjTweV-103">
          <mxGeometry relative="1" as="geometry" />
        </mxCell>
        <mxCell id="kRNO9Mzyhtv_aaAjTweV-100" value="查下是否已经有未结案数据" style="whiteSpace=wrap;html=1;labelBackgroundColor=none;fillColor=#B2C9AB;strokeColor=#788AA3;fontColor=#46495D;" vertex="1" parent="WIyWlLk6GJQsqaUBKTNV-1">
          <mxGeometry x="770" y="1190" width="120" height="60" as="geometry" />
        </mxCell>
        <mxCell id="kRNO9Mzyhtv_aaAjTweV-103" value="单条名单入名单库" style="whiteSpace=wrap;html=1;fillColor=#B2C9AB;strokeColor=#788AA3;fontColor=#46495D;labelBackgroundColor=none;" vertex="1" parent="WIyWlLk6GJQsqaUBKTNV-1">
          <mxGeometry x="770" y="1309" width="120" height="60" as="geometry" />
        </mxCell>
      </root>
    </mxGraphModel>
  </diagram>
</mxfile>
